<svg data-v-6b0f256e="" viewBox="0 0 24 24" fill="none" xmlns="http://www.w3.org/2000/svg" class="icon-svg" style="width: 20px; fill: rgb(3, 35, 70);"><path fill-rule="evenodd" clip-rule="evenodd" d="M11.1 3a1 1 0 00-1-1H7a2 2 0 00-2 2v16a2 2 0 002 2h10a2 2 0 002-2v-9.1a1 1 0 00-1-1h-4A2.9 2.9 0 0111.1 7V3zM9.5 13.1a.9.9 0 100 1.8H12a.9.9 0 100-1.8H9.5zm0 3.5a.9.9 0 100 1.8h5a.9.9 0 100-1.8h-5z" fill="#042F5F"></path><path d="M16.893 8.1a.5.5 0 00.353-.854l-3.492-3.492a.5.5 0 00-.854.353V7A1.1 1.1 0 0014 8.1h2.893z" fill="#042F5F"></path></svg>