<svg data-v-6b0f256e="" viewBox="0 0 24 24" fill="none" xmlns="http://www.w3.org/2000/svg" class="icon-svg" style="width: 20px; fill: rgb(3, 35, 70);"><path clip-rule="evenodd" d="M4.927 10.014v2.718h-.244a1.22 1.22 0 01-1.22-1.22v-.976c0-.673.546-1.219 1.22-1.219h.244v.697zm.223-2.16h-.467A2.683 2.683 0 002 10.537v.975a2.683 2.683 0 002.683 2.683h.976a.732.732 0 00.731-.732v-3.432c.007-3.884 2.2-6.568 5.61-6.568s5.603 2.684 5.61 6.569v2.964c-.004 2.67-.77 4.076-2.802 4.973a2.682 2.682 0 00-5.003 1.348 2.683 2.683 0 005.364.088c2.403-.988 3.583-2.598 3.846-5.21h.302A2.683 2.683 0 0022 11.512v-.975a2.683 2.683 0 00-2.683-2.683h-.467C18.112 4.37 15.584 2 12 2 8.416 2 5.888 4.37 5.15 7.854zm13.923 2.195v2.683h.244a1.22 1.22 0 001.22-1.22v-.976a1.22 1.22 0 00-1.22-1.219h-.244v.732zm-6.585 10.488a1.22 1.22 0 110-2.44 1.22 1.22 0 010 2.44z"></path><path d="M19.5 9H19l-.5.5V13c0 .4.667.167 1 0h.5c.167-.167.6-1 1-1s.167-.333 0-.5v-1c0-.4-.333-.5-.5-.5V9h-1zM13 17h-.5l-.5.5h-.5c0 .167-1 1.1-1 1.5 0 .5.5 1 .5 1.5s1 0 1 .5c0 .4.667.167 1 0h.5c.167-.167.6-1 1-1s.167-.333 0-.5v-1c0-.4-.333-.5-.5-.5v-1h-1zM4 9h-.5l-.5.5V13c0 .4.667.167 1 0l1 .5c.167-.167.1-1.5.5-1.5s.167-.333 0-.5v-1c0-.4-.333-.5-.5-.5V9H4z"></path></svg>